<?xml version="1.0" standalone="no"?><!DOCTYPE svg PUBLIC "-//W3C//DTD SVG 1.1//EN" "http://www.w3.org/Graphics/SVG/1.1/DTD/svg11.dtd"><svg t="1496399110568" class="icon" style="" viewBox="0 0 1025 1024" version="1.1" xmlns="http://www.w3.org/2000/svg" p-id="1054" xmlns:xlink="http://www.w3.org/1999/xlink" width="32.03125" height="32"><defs><style type="text/css"></style></defs><path d="M672.370701 340.684165c-45.332892-38.942015-105.010986-60.387743-168.035722-60.387743-129.04129 0-238.058166 93.347131-238.058166 203.833707 0 65.666769 39.085154 129.951536 102.001024 167.773635l1.843677 1.109835 0 74.527307 87.770737-41.982218 46.478009 1.218702c131.241808-0.021169 238.004741-90.916783 238.004741-202.64323C742.379033 430.410471 717.517109 379.466912 672.370701 340.684165zM367.497626 522.139722c-20.951796 0-37.99548-17.05074-37.99548-38.009592 0-20.9649 17.043684-38.021688 37.99548-38.021688 20.965908 0 38.021688 17.056788 38.021688 38.021688C405.519314 505.088982 388.463534 522.139722 367.497626 522.139722zM504.334979 522.139722c-20.965908 0-38.018664-17.056788-38.018664-38.021688 0-20.9649 17.052756-38.021688 38.018664-38.021688 20.9649 0 38.024712 17.05578 38.024712 38.021688C542.358684 505.082934 525.29988 522.139722 504.334979 522.139722zM641.179389 522.139722c-20.968932 0-38.024712-17.056788-38.024712-38.021688 0-20.9649 17.05578-38.021688 38.024712-38.021688 20.952804 0 37.999512 17.05578 37.999512 38.021688C679.178901 505.082934 662.132193 522.139722 641.179389 522.139722z" p-id="1055" fill="#006cb1"></path><path d="M505.27849 16.464069c-278.223923 0-503.768469 225.544546-503.768469 503.767461 0 278.223923 225.544546 503.768469 503.768469 503.768469 278.222915 0 503.768469-225.544546 503.768469-503.768469C1009.04696 242.008615 783.501406 16.464069 505.27849 16.464069zM759.913625 579.000386c-14.006505 28.979706-34.04503 54.991786-59.565195 77.321552-25.478835 22.295493-55.143998 39.799844-88.170923 52.019121-34.161961 12.644663-70.446823 19.055701-107.84656 19.055701l-44.640379 0-130.191446 71.015349L329.499122 668.557343c-31.77395-22.601933-56.744741-49.306526-74.242036-79.401107-18.832928-32.389854-28.382955-67.724148-28.382955-105.026106 0-32.899914 7.362613-64.81398 21.884219-94.854128 14.007513-28.976682 34.05007-54.988762 59.568219-77.319536 25.483876-22.296501 55.145006-39.799844 88.167899-52.022145 34.161961-12.642647 70.443799-19.055701 107.837487-19.055701 37.394697 0 73.676534 6.413054 107.840512 19.055701 33.022893 12.222301 62.688056 29.72262 88.170923 52.022145 25.519156 22.329766 45.560706 48.342854 59.568219 77.319536 14.518582 30.040148 21.886235 61.954214 21.882203 94.854128C781.796836 517.040124 774.436238 548.95923 759.913625 579.000386z" p-id="1056" fill="#006cb1"></path></svg>