<?xml version="1.0" encoding="utf-8"?>
<!-- Generator: Adobe Illustrator 16.0.0, SVG Export Plug-In . SVG Version: 6.00 Build 0)  -->
<!DOCTYPE svg PUBLIC "-//W3C//DTD SVG 1.1//EN" "http://www.w3.org/Graphics/SVG/1.1/DTD/svg11.dtd">
<svg version="1.1" id="图层_1" xmlns="http://www.w3.org/2000/svg" xmlns:xlink="http://www.w3.org/1999/xlink" x="0px" y="0px"
	 width="32px" height="32px" viewBox="0 0 32 32" enable-background="new 0 0 32 32" xml:space="preserve">
<circle fill="none" stroke="#01FFFF" stroke-width="0.6644" stroke-miterlimit="10" cx="16.314" cy="15.999" r="14.999"/>
<g>
	<path fill="#01FFFF" d="M16.314,7.999c-4.418,0-8,3.582-8,8.001c0,4.418,3.581,8,8,8c4.418,0,8-3.582,8-8
		C24.314,11.581,20.732,7.999,16.314,7.999 M15.932,9.518h1.017v1.996h-1.017V9.518z M12.889,13.252l-1.411-1.412l0.719-0.719
		l1.412,1.411L12.889,13.252z M13.391,10.25l0.92-0.43l0.844,1.809l-0.921,0.43L13.391,10.25z M16.454,21.83
		c-0.884,0-1.601-0.717-1.601-1.6c0-0.691,0.438-1.279,1.051-1.504V14.16h1.016v4.537c0.656,0.199,1.135,0.811,1.135,1.533
		C18.057,21.113,17.339,21.83,16.454,21.83 M17.646,11.627l0.844-1.809l0.921,0.43l-0.843,1.81L17.646,11.627z M19.881,13.252
		l-0.719-0.72l1.411-1.411l0.72,0.719L19.881,13.252z"/>
</g>
</svg>
