<?xml version="1.0" encoding="utf-8"?>
<!-- Generator: Adobe Illustrator 16.0.0, SVG Export Plug-In . SVG Version: 6.00 Build 0)  -->
<!DOCTYPE svg PUBLIC "-//W3C//DTD SVG 1.1//EN" "http://www.w3.org/Graphics/SVG/1.1/DTD/svg11.dtd">
<svg version="1.1" id="图层_1" xmlns="http://www.w3.org/2000/svg" xmlns:xlink="http://www.w3.org/1999/xlink" x="0px" y="0px"
	 width="32px" height="32px" viewBox="0 0 32 32" enable-background="new 0 0 32 32" xml:space="preserve">
<circle fill="none" stroke="#01FFFF" stroke-width="0.6644" stroke-miterlimit="10" cx="15.999" cy="16" r="14.999"/>
<g>
	<g>
		<path fill="#01FFFF" d="M22.298,13.989c0,0.226-0.008,0.459-0.032,0.687c0,0.038-0.033,0.116-0.033,0.154
			c-0.024,0.211-0.057,0.398-0.099,0.562l-0.016,0.047c-0.009,0.031-0.017,0.047-0.017,0.047c-0.065,0.211-0.131,0.398-0.197,0.562
			v0.031c0,0.023-0.008,0.031-0.032,0.031c-0.091,0.227-0.173,0.43-0.263,0.593c0,0.023-0.008,0.031-0.032,0.031
			c-0.222,0.414-0.484,0.78-0.788,1.154l-0.017,0.016c-0.008,0.008-0.016,0.016-0.016,0.016l-0.459,0.437
			c-0.065,0.063-0.099,0.094-0.099,0.094l-0.132,0.125l-0.099,0.063l-0.311,0.232l-0.05,0.047c-0.024,0.023-0.041,0.031-0.065,0.031
			c-0.173,0.148-0.312,0.313-0.41,0.499c-0.099,0.188-0.188,0.32-0.279,0.406c-0.09,0.086-0.254,0.124-0.492,0.124h-4.723
			c-0.238,0-0.402-0.038-0.492-0.124s-0.172-0.218-0.263-0.406c-0.09-0.187-0.229-0.351-0.426-0.499l-0.049-0.031l-0.066-0.047
			l-0.312-0.232c0-0.04-0.058-0.063-0.098-0.063c-0.091-0.086-0.099-0.133-0.181-0.188c-0.033-0.022-0.049-0.031-0.049-0.031
			c-0.172-0.148-0.328-0.289-0.459-0.437l-0.017-0.016l-0.016-0.016c-0.156-0.188-0.295-0.374-0.426-0.562
			c-0.131-0.188-0.254-0.383-0.361-0.593c-0.024,0-0.032-0.009-0.032-0.031c-0.091-0.163-0.173-0.366-0.263-0.593
			c-0.024-0.023-0.033-0.031-0.033-0.031v-0.031c-0.065-0.163-0.131-0.351-0.197-0.562c0-0.038,0.008-0.094-0.033-0.094L9.768,14.83
			c0-0.038,0.008-0.116-0.033-0.155c-0.024-0.227-0.033-0.46-0.033-0.686c0-1.646,0.615-3.05,1.854-4.227
			C12.794,8.586,14.278,8,16.017,8c1.738,0,3.223,0.586,4.444,1.763S22.298,12.343,22.298,13.989L22.298,13.989z M18.592,20.975
			c0.304,0,0.524,0.212,0.524,0.5c0,0.289-0.221,0.499-0.524,0.499h-5.249c-0.304,0-0.525-0.21-0.525-0.499
			c0-0.288,0.221-0.5,0.525-0.5H18.592L18.592,20.975z M16.492,23.906c-0.303,0.125-0.647,0.125-0.951,0l-1.935-0.935h4.755
			L16.492,23.906z M15.442,10.995c0.304,0,0.525-0.211,0.524-0.499c0-0.289-0.221-0.499-0.524-0.499
			c-0.959,0-1.812,0.32-2.559,0.967c-0.746,0.646-1.115,1.505-1.115,2.588c0,0.25,0.221,0.5,0.525,0.5s0.525-0.25,0.525-0.5
			c0-0.726,0.279-1.334,0.836-1.823C14.212,11.236,14.811,10.995,15.442,10.995L15.442,10.995z M15.442,10.995"/>
	</g>
</g>
</svg>
