<?xml version="1.0" encoding="utf-8"?>
<!-- Generator: Adobe Illustrator 16.0.0, SVG Export Plug-In . SVG Version: 6.00 Build 0)  -->
<!DOCTYPE svg PUBLIC "-//W3C//DTD SVG 1.1//EN" "http://www.w3.org/Graphics/SVG/1.1/DTD/svg11.dtd">
<svg version="1.1" id="图层_1" xmlns="http://www.w3.org/2000/svg" xmlns:xlink="http://www.w3.org/1999/xlink" x="0px" y="0px"
	 width="32px" height="32px" viewBox="0 0 32 32" enable-background="new 0 0 32 32" xml:space="preserve">
<circle fill="none" stroke="#01FFFF" stroke-width="0.6644" stroke-miterlimit="10" cx="15.795" cy="16" r="14.999"/>
<g>
	<g>
		<defs>
			<rect id="SVGID_1_" x="7.798" y="10.078" width="15.998" height="11.844"/>
		</defs>
		<clipPath id="SVGID_2_">
			<use xlink:href="#SVGID_1_"  overflow="visible"/>
		</clipPath>
		<path clip-path="url(#SVGID_2_)" fill="#01FFFF" d="M20.365,13.916c1.549-0.098,1.762-0.222,2.675,0.651
			c1.455-0.688,0.582-3.153-1.056-2.633c0.08-1.153-2.108-3.184-3.711-0.571C18.326,11.382,20.347,12.082,20.365,13.916"/>
	</g>
	<path fill="#01FFFF" d="M18.27,11.362v0.01l0.004-0.008L18.27,11.362z M18.27,11.362"/>
	<g>
		<path fill="#01FFFF" d="M16.904,16.822c-0.396,0-0.712,0.141-0.95,0.414c-0.229,0.271-0.353,0.65-0.353,1.127h0.009
			c0,0.465,0.114,0.826,0.352,1.092c0.238,0.264,0.547,0.404,0.942,0.404c0.404,0,0.724-0.131,0.934-0.385
			c0.212-0.266,0.317-0.637,0.317-1.129c0-0.494-0.105-0.863-0.317-1.127C17.628,16.953,17.309,16.822,16.904,16.822"/>
		<path fill="#01FFFF" d="M21.166,14.901l-1.752-0.062c-0.643-4.764-7.265-5.582-8.673,0.792l-0.686,0.037
			c-3.61,1.75-2.192,5.652-0.563,6.224v0.01h11.753C24.035,21.172,24.643,16.399,21.166,14.901 M13.762,17.129
			c-0.282-0.211-0.6-0.316-0.951-0.316c-0.406,0-0.74,0.141-0.995,0.422c-0.256,0.283-0.388,0.66-0.388,1.129
			c0,0.465,0.124,0.824,0.361,1.09c0.247,0.264,0.563,0.396,0.978,0.396c0.344,0,0.677-0.115,0.985-0.344v0.67
			c-0.308,0.186-0.677,0.271-1.118,0.271c-0.582,0-1.048-0.186-1.4-0.563c-0.352-0.369-0.527-0.854-0.527-1.451
			c0-0.662,0.194-1.191,0.572-1.596c0.378-0.404,0.897-0.607,1.532-0.607c0.37,0,0.686,0.063,0.951,0.193V17.129z M18.331,19.867
			c-0.37,0.387-0.854,0.59-1.471,0.59c-0.599,0-1.083-0.186-1.444-0.564c-0.361-0.375-0.537-0.879-0.537-1.496v-0.006
			c0-0.672,0.185-1.191,0.554-1.578c0.371-0.388,0.872-0.572,1.516-0.572c0.607,0,1.073,0.186,1.417,0.554
			c0.343,0.371,0.521,0.881,0.521,1.531C18.887,18.961,18.7,19.479,18.331,19.867 M21.272,20.086v0.266h-1.419v-0.256l0.679-0.68
			c0.186-0.186,0.317-0.332,0.378-0.447c0.063-0.104,0.098-0.219,0.098-0.344c0-0.131-0.034-0.234-0.114-0.307
			c-0.07-0.07-0.185-0.107-0.326-0.107c-0.211,0-0.403,0.09-0.599,0.268v-0.301c0.186-0.141,0.396-0.213,0.643-0.213
			c0.212,0,0.38,0.055,0.503,0.17c0.123,0.113,0.185,0.262,0.185,0.457c0,0.148-0.034,0.289-0.113,0.432
			c-0.079,0.141-0.229,0.316-0.449,0.537l-0.537,0.52v0.008h1.073V20.086z M21.272,20.086"/>
	</g>
</g>
</svg>
