<?xml version="1.0" encoding="utf-8"?>
<!-- Generator: Adobe Illustrator 16.0.0, SVG Export Plug-In . SVG Version: 6.00 Build 0)  -->
<!DOCTYPE svg PUBLIC "-//W3C//DTD SVG 1.1//EN" "http://www.w3.org/Graphics/SVG/1.1/DTD/svg11.dtd">
<svg version="1.1" id="图层_1" xmlns="http://www.w3.org/2000/svg" xmlns:xlink="http://www.w3.org/1999/xlink" x="0px" y="0px"
	 width="32px" height="32px" viewBox="0 0 32 32" enable-background="new 0 0 32 32" xml:space="preserve">
<circle fill="none" stroke="#01FFFF" stroke-width="0.6644" stroke-miterlimit="10" cx="15.999" cy="16" r="14.999"/>
<g>
	<g>
		<path fill="#01FFFF" d="M15.389,8.008c0.388-0.052,0.662,0.198,0.824,0.469c0.153,0.255,0.18,0.683,0.469,0.727
			c0.306,0.047,0.512-0.233,0.775-0.339c0.529-0.213,1.108-0.05,0.904,0.63c-0.058,0.19-0.191,0.356-0.274,0.549
			c-0.236,0.55-0.47,1.196-0.501,1.971c-0.007,0.18,0.039,0.317,0,0.453c-0.077,0.268-0.495,0.438-0.791,0.532
			c-0.729,0.232-1.473,0.259-2.327,0.098c-0.362-0.068-0.792-0.165-0.969-0.355c-0.141-0.15-0.24-0.508-0.339-0.743
			c-0.219-0.518-0.384-0.983-0.63-1.535c-0.089-0.2-0.33-0.502-0.227-0.823c0.076-0.235,0.365-0.316,0.598-0.323
			c0.666-0.021,1.382,0.144,1.664-0.372c0.084-0.154,0.101-0.313,0.178-0.452C14.863,8.274,15.044,8.053,15.389,8.008L15.389,8.008z
			 M15.389,8.008"/>
		<path fill="#01FFFF" d="M17.958,13.371c0.343,0.023,0.766,0.225,1.082,0.372c0.963,0.447,1.814,1.121,2.487,1.809
			c0.909,0.929,1.704,2.258,1.81,3.926c0.125,1.967-0.614,3.16-1.922,3.78c-1.265,0.6-3.135,0.743-4.992,0.743
			c-1.927,0-3.804-0.038-5.234-0.501c-1.466-0.474-2.374-1.353-2.521-3.215c-0.142-1.797,0.537-3.284,1.374-4.329
			c0.697-0.872,1.66-1.715,2.811-2.213c0.15-0.065,0.414-0.196,0.517-0.194c0.147,0.003,0.338,0.177,0.485,0.242
			c0.982,0.439,2.764,0.362,3.65-0.113C17.657,13.597,17.797,13.474,17.958,13.371L17.958,13.371z M15.324,15.391
			c-0.038,0.199-0.005,0.468-0.016,0.694c-0.666,0.136-1.163,0.597-1.211,1.244c-0.062,0.816,0.556,1.216,1.083,1.438
			c0.296,0.125,0.62,0.191,0.84,0.372c0.427,0.35,0.114,0.856-0.355,0.904c-0.526,0.054-1.04-0.182-1.373-0.323
			c-0.113,0.242-0.178,0.533-0.242,0.824c0.286,0.246,0.745,0.321,1.211,0.388c0.018,0.23-0.038,0.532,0.032,0.711
			c0.21,0.019,0.559,0.044,0.743-0.017c0.037-0.221,0.006-0.511,0.016-0.759c0.75-0.166,1.282-0.66,1.276-1.422
			c-0.006-0.864-0.627-1.211-1.244-1.454c-0.361-0.142-1.048-0.322-0.872-0.824c0.186-0.529,1.339-0.191,1.664-0.016
			c0.127-0.229,0.184-0.527,0.259-0.808c-0.257-0.196-0.645-0.26-1.034-0.323c-0.017-0.215,0.037-0.5-0.032-0.662
			c-0.2-0.037-0.468-0.006-0.694-0.017C15.35,15.351,15.333,15.367,15.324,15.391L15.324,15.391z M15.324,15.391"/>
	</g>
</g>
</svg>
